<svg xmlns="http://www.w3.org/2000/svg" viewBox="0 0 512 512"><!--! Font Awesome Pro 6.2.1 by @fontawesome - https://fontawesome.com License - https://fontawesome.com/license (Commercial License) Copyright 2022 Fonticons, Inc.--><path d="M256 448c141.4 0 256-93.1 256-208S397.4 32 256 32 0 125.1 0 240c0 45.1 17.7 86.8 47.7 120.9a145.6 145.6 0 0 1-21.4 62.9 180.4 180.4 0 0 1-20.1 27.3l-1.3 1.4-.3.3A16 16 0 0 0 16 480.1c28.7 0 57.6-8.9 81.6-19.3 22.9-10 42.4-21.9 54.3-30.6 31.8 11.5 67 17.9 104.1 17.9zm-53.1-271.2c6.5-2.2 13.7.1 17.9 5.6l35.2 46.9 35.2-46.9A16 16 0 0 1 320 192v96c0 8.8-7.2 16-16 16s-16-7.2-16-16v-48l-19.2 25.6c-3 4-7.8 6.4-12.8 6.4s-9.8-2.4-12.8-6.4L224 240v48c0 8.8-7.2 16-16 16s-16-7.2-16-16v-96a16 16 0 0 1 10.9-15.2m173.1 38v.4c.1.1.6.8 2.2 1.7 3.9 2.3 9.6 4.1 18.3 6.8l.6.2c7.4 2.2 17.3 5.2 25.2 10.2a35 35 0 0 1 17.6 29.9c.2 15-7.6 26-17.8 32.3a55.8 55.8 0 0 1-30.7 7.6c-12.2-.4-23.7-4.4-32.6-7.4l-4-1.4a16 16 0 1 1 10.1-30.3l4.9 1.6a77.5 77.5 0 0 0 22.6 5.5c5.3.2 10-1 12.8-2.8a6.7 6.7 0 0 0 2.1-2c.2-.4.6-1.2.6-2.7v-.2c0-.7 0-1.4-2.7-3.1a82.7 82.7 0 0 0-18-6.9l-1.2-.4c-7.2-2.2-16.7-5-24.3-9.6a33.6 33.6 0 0 1-17.7-29.4 36 36 0 0 1 18.5-31.6 59 59 0 0 1 29.7-7.4c10 .2 19.7 2.3 27.9 4.4a16 16 0 1 1-8.3 30.9 89 89 0 0 0-20.1-3.4c-4.9-.1-9.8 1.1-12.9 2.9a7.7 7.7 0 0 0-2.4 2c-.2.3-.4.8-.4 1.9zm-272 0v.4c.1.1.6.8 2.2 1.7 3.9 2.3 9.6 4.1 18.3 6.8l.6.2c7.4 2.2 17.3 5.2 25.2 10.2a35 35 0 0 1 17.6 29.9c.2 15-7.6 26-17.8 32.3a55.8 55.8 0 0 1-30.7 7.6c-12.3-.4-24.2-4.5-33.2-7.6l-3.6-1.2a16 16 0 1 1 10.1-30.3l4 1.4c9.5 3.2 16.5 5.6 23.7 5.8 5.3.2 10-1 12.8-2.8a6.7 6.7 0 0 0 2.1-2c.2-.4.6-1.2.6-2.7v-.2c0-.7 0-1.4-2.7-3.1a82.7 82.7 0 0 0-18-6.9l-1.2-.4c-7.2-2.2-16.7-5-24.3-9.6A33.7 33.7 0 0 1 72 215a36 36 0 0 1 18.5-31.6 59 59 0 0 1 29.7-7.4c9.5.1 22.2 2.1 31.1 4.4a16 16 0 1 1-8.3 30.9c-6.6-1.8-16.8-3.3-23.3-3.4-4.9-.1-9.8 1.1-12.9 2.9a7.7 7.7 0 0 0-2.4 2c-.2.3-.4.8-.4 1.9z"/></svg>
