<svg xmlns="http://www.w3.org/2000/svg" viewBox="0 0 512 512"><!--! Font Awesome Pro 6.2.1 by @fontawesome - https://fontawesome.com License - https://fontawesome.com/license (Commercial License) Copyright 2022 Fonticons, Inc.--><path d="M503 71 441 9c-6-6-14-9-22-9H255c-35 0-64 29-64 64v256c1 35 30 64 65 64h192c35 0 64-29 64-64V93c0-8-3-16-9-22m-39 249c0 9-7 16-16 16H255c-9 0-16-7-16-16V64c0-9 7-16 16-16h128l1 48c0 18 14 32 32 32h47v192zM272 448c0 9-7 16-16 16H63c-9 0-16-7-16-16l1-256c0-9 7-16 16-16h96v-48H64c-35 0-64 29-64 64v256c0 35 29 64 64 64h192c35 0 64-29 64-64v-32h-47z"/></svg>
