<svg xmlns="http://www.w3.org/2000/svg" viewBox="0 0 576 512"><!--! Font Awesome Pro 6.2.1 by @fontawesome - https://fontawesome.com License - https://fontawesome.com/license (Commercial License) Copyright 2022 Fonticons, Inc.--><path d="m385 168 19 1C387 90 303 32 208 32 101 32 13 105 13 197c0 54 29 98 78 132l-19 59 68-34c24 4 43 9 68 9l18-1c-4-13-6-26-6-40 0-85 73-154 165-154m-104-53c14 0 24 9 24 24s-10 24-24 24c-15 0-30-9-30-24 1-15 15-24 30-24m-137 48c-14 0-29-9-29-24s15-24 29-24c15 0 25 9 25 24s-10 24-25 24m419 156c0-78-78-141-165-141-93 0-166 63-166 141s73 142 166 142c19 0 39-5 58-10l54 29-15-48c39-30 68-69 68-113m-219-24c-10 0-19-10-19-20 0-9 9-19 19-19 15 0 24 10 24 19 0 10-9 20-24 20m107 0c-10 0-19-10-19-20 0-9 9-19 19-19 15 0 24 10 24 19 0 10-10 20-24 20"/></svg>
