<svg xmlns="http://www.w3.org/2000/svg" width="512" height="350" xml:space="preserve"><rect width="100%" height="100%" ry="60" rx="60" fill="rgba(255, 255, 255, 1)"/><path style="stroke:#000;stroke-width:20;stroke-dasharray:none;stroke-linecap:round;stroke-dashoffset:0;stroke-linejoin:round;stroke-miterlimit:10;fill:none;fill-rule:nonzero;opacity:1" transform="translate(-1 -81)" d="M444 114H68c-19 0-34 15-34 34v216c0 19 15 34 34 34h376c19 0 34-15 34-34V148c0-19-15-34-34-34zM267 331h-44v-86l-45 55-44-55v86H90V181h44l44 55 45-55h44v150h0zm97 2-66-77h44v-75h44v75h44l-66 77z" stroke-linecap="round"/></svg>
