<svg xmlns="http://www.w3.org/2000/svg" viewBox="0 0 512 512"><!--! Font Awesome Pro 6.2.1 by @fontawesome - https://fontawesome.com License - https://fontawesome.com/license (Commercial License) Copyright 2022 Fonticons, Inc.--><path d="M64 464h224a16 16 0 0 0 16-16v-64h48v64a64 64 0 0 1-64 64H64a64 64 0 0 1-64-64V224a64 64 0 0 1 64-64h64v48H64a16 16 0 0 0-16 16v224a16 16 0 0 0 16 16m96-400a64 64 0 0 1 64-64h224a64 64 0 0 1 64 64v224a64 64 0 0 1-64 64H224a64 64 0 0 1-64-64zm64 240h224a16 16 0 0 0 16-16V64a16 16 0 0 0-16-16H224a16 16 0 0 0-16 16v224a16 16 0 0 0 16 16"/></svg>
