<svg xmlns="http://www.w3.org/2000/svg" viewBox="0 0 512 512"><!--! Font Awesome Pro 6.2.1 by @fontawesome - https://fontawesome.com License - https://fontawesome.com/license (Commercial License) Copyright 2022 Fonticons, Inc.--><path d="M257 8A240 240 0 0 0 8 249c0 72 30 134 78 178 8 7 7 11 8 58a20 20 0 0 0 28 17c53-23 54-25 63-22 153 42 319-56 319-231C504 110 397 8 257 8m149 185-73 116a37 37 0 0 1-54 10l-58-44a15 15 0 0 0-18 0l-79 60c-10 8-24-5-17-16l73-116a37 37 0 0 1 54-10l58 44a15 15 0 0 0 18 0l79-59c10-8 24 4 17 15"/></svg>
