<svg xmlns="http://www.w3.org/2000/svg" viewBox="0 0 512 512"><!--! Font Awesome Pro 6.2.1 by @fontawesome - https://fontawesome.com License - https://fontawesome.com/license (Commercial License) Copyright 2022 Fonticons, Inc.--><path d="M201.5 305.5a24.8 24.8 0 1 1-.2-49.6 24.8 24.8 0 0 1 .2 49.6M504 256a248 248 0 1 1-496 0 248 248 0 0 1 496 0m-132.3-41.2c-9.4 0-17.7 3.9-23.8 10a161.7 161.7 0 0 0-86.1-26.6l17.4-78.3 55.4 12.5a24.6 24.6 0 0 0 24.6 24.6c13.8 0 24.9-11.3 24.9-24.9s-11.1-24.9-24.9-24.9a25 25 0 0 0-22.1 13.8l-61.2-13.6c-3-.8-6.1 1.4-6.9 4.4l-19.1 86.4a163.1 163.1 0 0 0-85.5 26.8 33.1 33.1 0 0 0-24.1-10.2c-34.9 0-46.3 46.9-14.4 62.8-1.1 5-1.7 10.2-1.7 15.5 0 52.6 59.2 95.2 132 95.2 73.1 0 132.3-42.6 132.3-95.2 0-5.3-.6-10.8-1.9-15.8 31.3-16 19.8-62.5-14.9-62.5M302.8 331c-18.2 18.2-76.1 17.9-93.6 0a6 6 0 0 0-8.3 0c-2.5 2.5-2.5 6.4 0 8.6 22.8 22.8 87.3 22.8 110.2 0 2.5-2.2 2.5-6.1 0-8.6a6 6 0 0 0-8.3 0m7.7-75a24.7 24.7 0 1 0 .2 49.4 24.7 24.7 0 0 0-.2-49.4"/></svg>
